<svg xmlns="http://www.w3.org/2000/svg" aria-hidden="true" style="position:absolute;width:0;height:0;overflow:hidden">
  <defs>
    <symbol id="icon-favicon" viewBox="0 0 32 32">
      <path fill="#1b414b" d="M8 0h16a8 8 0 0 1 8 8v16a8 8 0 0 1-8 8H8a8 8 0 0 1-8-8V8a8 8 0 0 1 8-8z" style="fill:var(--color1, #1b414b)"/>
      <path fill="#fbfbfb" d="M7.369 10.818h1.745l2.66 4.628h.109l2.66-4.628h1.745l-3.694 6.185V21h-1.531v-3.997l-3.694-6.185zM17.14 21h-1.631l3.664-10.182h1.775L24.612 21h-1.631l-2.878-8.332h-.08L17.139 21zm.273-3.987h5.29v1.293h-5.29v-1.293z" style="fill:var(--color2, #fbfbfb)"/>
    </symbol>
    <symbol id="icon-close" viewBox="0 0 32 32">
      <path d="m25.143 8.983-2.126-2.126-7.016 7.016-7.016-7.016-2.126 2.126L13.875 16l-7.016 7.016 2.126 2.126 7.017-7.016 7.016 7.016 2.126-2.126L18.128 16l7.016-7.017z"/>
    </symbol>
    <symbol id="icon-menu" viewBox="0 0 32 32">
      <path stroke-linecap="round" stroke-linejoin="round" stroke-width="2.857" d="M4 20h24M4 12h24"/>
    </symbol>
    <symbol id="icon-facebook" viewBox="0 0 32 32">
      <path d="M32 16.04C32 7.186 24.832 0 16 0S0 7.186 0 16.04c0 7.763 5.504 14.228 12.8 15.719V20.852H9.6V16.04h3.2v-4.01c0-3.096 2.512-5.614 5.6-5.614h4v4.812h-3.2c-.88 0-1.6.722-1.6 1.604v3.208h4.8v4.812h-4.8V32c8.08-.802 14.4-7.635 14.4-15.96z"/>
    </symbol>
    <symbol id="icon-youtube" viewBox="0 0 32 32">
      <path d="m18.672 15.722-3.743-1.747c-.327-.152-.595.018-.595.38v3.29c0 .362.268.532.595.38l3.742-1.747c.328-.153.328-.403.002-.557zM16 0C7.163 0 0 7.163 0 16s7.163 16 16 16 16-7.163 16-16S24.837 0 16 0zm0 22.5c-8.19 0-8.333-.738-8.333-6.5S7.81 9.5 16 9.5s8.333.738 8.333 6.5-.143 6.5-8.333 6.5z"/>
    </symbol>
    <symbol id="icon-instagram" viewBox="0 0 32 32">
      <path d="M23.385 0H8.616A8.623 8.623 0 0 0 .001 8.615v14.769a8.623 8.623 0 0 0 8.615 8.615h14.769A8.627 8.627 0 0 0 32 23.384V8.615A8.627 8.627 0 0 0 23.385 0zM16 23.385a7.389 7.389 0 0 1-6.823-4.558 7.384 7.384 0 1 1 6.822 4.559zm9.231-14.77a1.847 1.847 0 1 1 0-3.695 1.847 1.847 0 0 1 0 3.695zM20.923 16a4.92 4.92 0 0 1-5.883 4.828 4.93 4.93 0 0 1-2.521-1.347 4.93 4.93 0 0 1-1.067-5.365 4.925 4.925 0 0 1 8.029-1.597A4.923 4.923 0 0 1 20.923 16z"/>
    </symbol>
  </defs>
</svg>